/* XPM */
static char *_962928534dc48a0d9bcc26cf828cdcfA31ptZcmj8gkiw8I[] = {
/* columns rows colors chars-per-pixel */
"16 16 172 2 ",
"   c None",
".  c #9A7E24",
"X  c #937B2B",
"o  c #8C8234",
"O  c #A1892E",
"+  c #BC9E37",
"@  c #BB9E46",
"#  c #BEAB53",
"$  c #9D8F66",
"%  c #8F8B73",
"&  c #B8A66A",
"*  c #BAB369",
"=  c #BBB177",
"-  c #C4A952",
";  c #C1A75B",
":  c #CBB670",
">  c #DFC146",
",  c #E6CA5C",
"<  c #CCCA7A",
"1  c #DACF7B",
"2  c #797C87",
"3  c #9D9C86",
"4  c #828495",
"5  c #8C8D95",
"6  c #878D98",
"7  c #81899F",
"8  c #959595",
"9  c #9C9C90",
"0  c #9E9E9A",
"q  c gray61",
"w  c #A09D85",
"e  c #AEA480",
"r  c #A6A38A",
"t  c #B6B58D",
"y  c #B9B38C",
"u  c #A9A791",
"i  c #ACAA90",
"p  c #BBBA9C",
"a  c #8B95B3",
"s  c #A2A3A4",
"d  c #A4A4A4",
"f  c #A5A5A5",
"g  c #A6A6A5",
"h  c #A7A7A7",
"j  c #A4A4AE",
"k  c #A8A9A8",
"l  c gray67",
"z  c #ADACAA",
"x  c #ACACAC",
"c  c #AEAEAE",
"v  c #A0A3B5",
"b  c #A2A2B5",
"n  c #A4A5B5",
"m  c #AFB0B6",
"M  c #B1B1B1",
"N  c #B2B2B2",
"B  c #B4B3B2",
"V  c gray71",
"C  c #B9B9B9",
"Z  c gray73",
"A  c #BBBBBB",
"S  c #BBBDB8",
"D  c #BDBCBB",
"F  c #BCBCBC",
"G  c #BCBCBD",
"H  c gray74",
"J  c #D1C695",
"K  c #C5C2A1",
"L  c #CAC3A7",
"P  c #C5C5AD",
"I  c #D1D1A3",
"U  c #D8D7A7",
"Y  c #CDCBB7",
"T  c #C0C0BD",
"R  c #C3C3BF",
"E  c #CDCBBA",
"W  c #D6D5B4",
"Q  c #D8D2B9",
"!  c #DDDBBD",
"~  c #E3D5A6",
"^  c #E4DDAA",
"/  c #E6E0BC",
"(  c #8E9CCD",
")  c #919CC7",
"_  c #A0A9C5",
"`  c #ABB3D2",
"'  c #ABB6DD",
"]  c #BDC0C8",
"[  c #C0C0C0",
"{  c gray76",
"}  c #C4C4C3",
"|  c #C5C5C5",
" . c #CECEC2",
".. c #C8C8C8",
"X. c #C9C9C8",
"o. c #CBCBCB",
"O. c #CECDCB",
"+. c #CBCCCC",
"@. c #CDCDCD",
"#. c gray81",
"$. c #D6D4C4",
"%. c #DEDBC0",
"&. c #D7D8CA",
"*. c #DADACA",
"=. c #DEDBCF",
"-. c #C5C6D0",
";. c #C4C8D6",
":. c #CDCDD0",
">. c #C9CCD6",
",. c gray82",
"<. c LightGray",
"1. c #D4D4D3",
"2. c #D5D5D5",
"3. c #D5D4D6",
"4. c #D4D5DC",
"5. c #D7D8DD",
"6. c #D7D8DE",
"7. c #DADADA",
"8. c gray86",
"9. c gray87",
"0. c #E5DFC4",
"q. c #E3E2C6",
"w. c #E5E2CB",
"e. c #E4E3CF",
"r. c #E7E6CD",
"t. c #E1E1DF",
"y. c #F1F1D2",
"u. c #CDD0EB",
"i. c #DADBE1",
"p. c #DADCE8",
"a. c #DBDDEB",
"s. c #C4D2FF",
"d. c #DFE8FF",
"f. c gray88",
"g. c #E2E1E0",
"h. c #E1E2E3",
"j. c #E2E2E2",
"k. c gray89",
"l. c #E4E4E4",
"z. c gray90",
"x. c #E7E7E6",
"c. c #E8E6E1",
"v. c #E3E2EF",
"b. c gray91",
"n. c #E9EAE8",
"m. c #ECECEC",
"M. c #ECECEE",
"N. c #EFEFEF",
"B. c #F7F6E2",
"V. c #F0F0EF",
"C. c #E3E4F0",
"Z. c #E6E7F6",
"A. c #E9EAF0",
"S. c #E8E9F3",
"D. c #EDEEF3",
"F. c #EBEBF7",
"G. c #EDEDF6",
"H. c #E9EBF9",
"J. c #EBECF9",
"K. c #EBEEF8",
"L. c #EFF1F7",
"P. c gray94",
"I. c #F1F1F7",
"U. c gray97",
"Y. c #F1F3FF",
"T. c #F3F4FF",
"R. c #F0F6FF",
"E. c #F4F5FF",
"W. c #FAFBFC",
"Q. c gray99",
"!. c #FCFEFF",
"~. c white",
/* pixels */
"            L.J.F.G.            ",
"        H.i.=./ ! *.k.S.        ",
"      p.Q J 0.^ U I < $.Z.      ",
"    C.%.1 w.D.Y.~.W. .= y p.    ",
"  V.6.E n.T.I.Q.~.~.!.A w m 2.  ",
"  k.T -.~.y.e.~.T.B.q.4.n 0 c   ",
"k...l 6.W i p &.r.t 9 P s q 0 M ",
"9.h 5 Y r v.u.K * 4 b 3 u j h x ",
"7.8 2 L ~ s.' , # ) ( $ e ;...M.",
"7.h h v : ; > o % + - O >.M.z.V.",
"  #.B ] 6 . X 7 ` & @ S J.O.k.  ",
"  2.o.} :.a _ 2.c.T.d.A.z { C   ",
"    @.H B k.9.P.U.x.} d T |     ",
"      <.k.k.l...S M V ,.,.      ",
"        k.b.@.H A | 2.|         ",
"            C M G ..            "
};
