/* XPM */
static char *_46feb5faf0a403adc5576346b1bf9c9DF0lC5YNXitPDyDB[] = {
/* columns rows colors chars-per-pixel */
"64 64 231 2 ",
"   c None",
".  c #1A1A1C",
"X  c #2F2A1A",
"o  c #1A1A29",
"O  c #272729",
"+  c #252737",
"@  c #3B3A39",
"#  c #313129",
"$  c #50491E",
"%  c #554D23",
"&  c #4C483B",
"*  c #5A563C",
"=  c #685A21",
"-  c #746837",
";  c #6C653D",
":  c #071242",
">  c #363844",
",  c #393E54",
"<  c #2B3048",
"1  c #3E435D",
"2  c #474748",
"3  c #56564A",
"4  c #474855",
"5  c #575756",
"6  c #4E5256",
"7  c #6D6C54",
"8  c #767351",
"9  c #796E50",
"0  c #535562",
"q  c #4C536A",
"w  c #5D637A",
"e  c #646465",
"r  c #66666C",
"t  c #7A796B",
"y  c #676975",
"u  c #757575",
"i  c #7C7C7C",
"p  c #77777A",
"a  c #917213",
"s  c #8C762E",
"d  c #867A4F",
"f  c #867E65",
"g  c #AD830F",
"h  c #A6881A",
"j  c #A6910E",
"k  c #9F8635",
"l  c #B09530",
"z  c #B1AA33",
"x  c #948B0C",
"c  c #C59316",
"v  c #D1B212",
"b  c #E8A91A",
"n  c #D6B929",
"m  c #C8A63E",
"M  c #CDB631",
"N  c #DCB73A",
"B  c #CDA930",
"V  c #F7B729",
"C  c #EBB634",
"Z  c #F7B833",
"A  c #EEAF2A",
"S  c #E4CE1B",
"D  c #DCC724",
"F  c #C7C533",
"G  c #D9C73B",
"H  c #FFC92A",
"J  c #ECC534",
"K  c #FFCB37",
"L  c #FCC93C",
"P  c #FFD637",
"I  c #FFD12F",
"U  c #FFE23F",
"Y  c #87815A",
"T  c #9B8852",
"R  c #968F52",
"E  c #A89653",
"W  c #BCA749",
"Q  c #B1AB53",
"!  c #8B8B73",
"~  c #969274",
"^  c #989469",
"/  c #AE9E64",
"(  c #B8AE69",
")  c #BBB664",
"_  c #ABA773",
"`  c #BDB37A",
"'  c #ABA46F",
"]  c #C9B749",
"[  c #CDAE4E",
"{  c #F8BB46",
"}  c #E4BA51",
"|  c #C1B875",
" . c #CCB567",
".. c #CAC757",
"X. c #DCDB5E",
"o. c #D7C156",
"O. c #F9D948",
"+. c #E4C75A",
"@. c #FAC95A",
"#. c #FCD45A",
"$. c #F6C848",
"%. c #FFE346",
"&. c #FFEC58",
"*. c #CEC76D",
"=. c #DAC563",
"-. c #D4C873",
";. c #FFD46A",
":. c #E9D47C",
">. c #F7D77A",
",. c #E3D269",
"<. c #FCE46A",
"1. c #FBE777",
"2. c #767784",
"3. c #787D93",
"4. c #6D7281",
"5. c #787FB1",
"6. c #7E879E",
"7. c #7F86A3",
"8. c #848484",
"9. c #8C8C8C",
"0. c #828289",
"q. c #9A978A",
"w. c #868996",
"e. c #939394",
"r. c #9C9C9C",
"t. c #989998",
"y. c #8F9096",
"u. c #A19F9D",
"i. c #A5A486",
"p. c #BCB682",
"a. c #A2A29E",
"s. c #A6A596",
"d. c #B9B896",
"f. c #B1AB8F",
"g. c #868CA5",
"h. c #8A92AE",
"j. c #9394A1",
"k. c #989CA7",
"l. c #959CB2",
"z. c #8F97B6",
"x. c #9FA4B1",
"c. c #A4A4A4",
"v. c #A3A5AB",
"b. c #ABABAB",
"n. c #A8A7A7",
"m. c #B9B9A6",
"M. c #ADAEB2",
"N. c #A5A9B8",
"B. c #ACB2BA",
"V. c #B4B4B3",
"C. c #BCBCBC",
"Z. c #B9B8B7",
"A. c #C2BB92",
"S. c #C2BDB8",
"D. c #C6C199",
"F. c #D8C995",
"G. c #DED599",
"H. c #D3CB86",
"J. c #E2DA9B",
"K. c #F1D890",
"L. c #FFE886",
"P. c #FBE89C",
"I. c #FDF59C",
"U. c #EAE19A",
"Y. c #CDCCA7",
"T. c #D4D2AC",
"R. c #DFDDA2",
"E. c #C9C7B8",
"W. c #D7CCB3",
"Q. c #D7D4B7",
"!. c #E2DDB9",
"~. c #E0DFAD",
"^. c #EAE3A9",
"/. c #FDF7A9",
"(. c #E9E8BB",
"). c #F3ECB9",
"_. c #FFFFB5",
"`. c #FFFEBD",
"'. c #F9F5B7",
"]. c #F1EBAA",
"[. c #9DA6C0",
"{. c #A2ABC4",
"}. c #ADB4C7",
"|. c #B8BAC6",
" X c #B5BCD4",
".X c #A8AAD0",
"XX c #BFC1C4",
"oX c #BDC3D8",
"OX c #BFC5E3",
"+X c #BAC6F9",
"@X c #C4C4C4",
"#X c #CBCBC6",
"$X c #CBCBCB",
"%X c #C5C6CA",
"&X c #D4D3CD",
"*X c #DBD9C7",
"=X c #C9CBD5",
"-X c #D4D4D4",
";X c #DBDAD5",
":X c #DCDCDC",
">X c #D4D5DD",
",X c #CFD1DB",
"<X c #E0DFDE",
"1X c #EDE7C6",
"2X c #FFFECB",
"3X c #F8F5C7",
"4X c #E5E4DF",
"5X c #FFFFD5",
"6X c #FFFFDD",
"7X c #F9F5D9",
"8X c #F0E8C7",
"9X c #D8DAE6",
"0X c #CED5F2",
"qX c #DDE4FF",
"wX c #E4E4E4",
"eX c #E4E5EC",
"rX c #ECECEC",
"tX c #EAEAE9",
"yX c #FEFEE3",
"uX c #FFFEEB",
"iX c #E6E9F3",
"pX c #EBECF3",
"aX c #EAEBFD",
"sX c #E5E7F9",
"dX c #EEF3FD",
"fX c #F4F4F4",
"gX c #FDFDF3",
"hX c #F4F5FC",
"jX c #F7FAFF",
"kX c #FEFEFE",
"lX c #F9F7F6",
/* pixels */
"                                                                                                                                ",
"                                                                                                                                ",
"                                                      kXkXkXkXkXkXkXkXlXlX                                                      ",
"                                              kXkXkXkXkXlXfXrXtXtXtXrXfXlXkXkXlXfX                                              ",
"                                        kXkXkXkXrX-X@X@XC.C.C.@X|.E.|.C.@X@X%X;XrXlXfXfX                                        ",
"                                    kXkXkXrX%XZ.V.@X-XeXhXkXkXkXkXkXkXkXhX>X%XC.Z.C.-XrXfXfX                                    ",
"                                kXkXkXwXC.b.XXwXkXkXkXkXgXlXkXgX8XkXkXgXuXkXkXkXpX$XZ.V.#XfXfXrX                                ",
"                              kXkXpXV.v.#XkXkXlXuXkXG.iX).b 3XyXz qX].z R *.7XkXkXkXkX>XV.V.:XkXlX                              ",
"                          kXkXkX%Xc.@XkXkXkX8XA.f.hX] @X5Xz ' <.| tXv .XsXd.E.gXX.) uXkXkX-XM.XXkXkXwX                          ",
"                        kXkXlXn.b.fXkXkXgXK.Q q.S.kX1.H.7X] +XF z iXX.H.uXgXkXF ^ _ ..7XkXkXlXC.b.fXkXrX                        ",
"                      kXkXwXr.$XkXkXlX-.aX3X] u.&XkXR._ aXd.kXpXm.jXiXQ z _ fXF *XgXX.W aX^.tXkX-Xa.wXkXtX                      ",
"                    kXkX:Xr.:XkXkXkXkX+.F.kX] E.kXkXsXeXkXkXkXkXkXjXkXjX0XeXkX*XQ X.z M.'.j oXdXjX:Xt.:XkXtX                    ",
"                  kXkX:Xt.tXkXjX>.W _ X.D iXQ.&XkXkXkXkXkXkXkXlXlXlXfXfXlXfXfXhX%XQ a.qXD ~ qX+.E.sX;Xy.:XkXwX                  ",
"                lXkXtXr.rXkXkXjX-.B Z.` / 9XkXkXkXkXlXfXrXtXtXtXrXpXfXfXlXpXwX:XpXsXjX!.- +XP.v ' 0X9X$X9.wXkX:X                ",
"                kXfXr.wXkXfXo.7XdXG J.jXdXkXkXkXfXtXwX:X9XwXtXrXrXfXlXkXkXkXkXfX<X-X-X-X0X*Xh ^ |  XR.=XC.e.lXkX                ",
"              kXkXb.-XkXlXjX` S gX;Xm.kXkXkXfXwX:X:XwXtXrXrXfXfXlXkXkXkXkXkXkXkXkXrX$X%X<XE.w.#X .M k [.&Xc.v.kXfX              ",
"            lXkX@XC.kXlX9XZ.dX .) jXkXjXfXwX<X<XtXtXrXrXfXlXlXkXkXkXkXkXkXkXkXlXkXkXkX-XZ.@X,XoXS x 7.eXb.C.8.$XkX:X            ",
"            kXwXn.kXkX$Xe.#XkX9X%XlXlXrX<X<XwXtXrXpXfXfXlXkXkXkXkXkXkXkXkXkXkXjXlXfXlXkX;XM.C.|.! w.|.iX@Xe.V.8.lXkX            ",
"          fXkXV.-XkXlXrX$XtXe.-XkXrXwX<XwXrXrXpXfXlXlXkXkXkXkXkXkXkXkXkXkXlXlXlXfXfXrXrXlX>Xc.V.N.$Xt.V.@X8.b.9.b.kXwX          ",
"          kX-XV.kXfXtXV.V.a.@XfXrX:X<XrXrXfXfXlXlXkXkXkXkXkXkXkXkXkXkXkXlXlXfXfXpXtXtXwXwXfX#Xr.V.c.i @X9.tXb.t.8.rXkX          ",
"        fXlXV.:XfXpXC.u.@X%XkXtX-X<XfXpXfXlXkXkXkXkXkXkXkXkXkXkXkXlXlXlXfXpXrXrXfXkXfX<X:X>XwXV.r.c.n.kXu -XtX9.8.b.kX:X        ",
"        fX-XV.kXtXb.c.kXZ.C.fX-X-XlXfXkXkXkXlX&XC.9XkXkXkXkXkXlXfXfXfXfXrXfXpX<X@Xc.Z.tX:X&X-X-Xu.r.y.rXrX8.:X9.r.0.wXrX        ",
"        lXV.@XkXwX$X:XC.e.tX;X%XfXkXkXkX4X*X(.T.s.t s.lXkXlXlXfXfXpXrXpXiX&X1X(.(.s.p q.=X=X#X&XZ.e.t.t.V.b.E.r b.8.b.fX        ",
"      pXrXV.:XwXwX:Xt.y.;X<XC.:XkXkXkXQ.T.8X2X6XyX7Xd.E.fXjXfXpXrXtXpXwXQ.!.3X2X5XuXuXT.Q.%XZ.@X|.u.u.r.r %Xr.M.r.e.e.;X-X      ",
"      fX-XV.tX$X%X6.m.@X9X#XC.kXkXkXY.~.2X5X6X6X6X6X6X'.1XiXrXtXtXiX:XY.).2X2XyX6X2X5XuX2X8X|.M.C.n.e.u.n.V.p wXc.r.9.M.-X      ",
"      fXC.V.:X;XV.n.#Xa.;XV.&XkXkXd.G.6X6XD.~ ! ! i.(.6X_.1X9XtXeX:XA.'.`.5X3X! 3 3 5 ! 3X5X1Xv.Z.n.t.u.c.-Xt.n.n.r.r.e.$X      ",
"      fXV.V.<XC.r.wXt.c.-Xn.tXkXE.^ 6XQ.3 > e p p e 2 ! 2X_.Q.9XeXf.^.'.5XY.O > 2.y.0.6 & T.2Xi.j.M.t.n.r.XXt.n.e.c.b.9.C.      ",
"    rXfXM.C.$XC.$Xe.9.%XV.b.kXkXt K.(.O y rXkXkXkXkX>Xr 5 ).].XXv.-.`.`.T.. y -X-X#X@X&X3.5 3Xp.y C.t.n.M.t.r.c.8.@XC.9.c.$X    ",
"    rXfXn.XXV.C.9.t.Z.C.u.C.kXeXY 2X& p kXkXfXtXwXeXpXkXj.7 _.A.~ /./.`.# r >XXXV.M.b.b.XX0.J.I.7 v.e.v.XXn.n.8.n.V.$Xr.e.%X    ",
"    fXrXc.Z.C.a.8.C.e.V.t.#XkX|.| | 4 kXkXwXwXwX<X:X;X-XhXw.` I.K.P._.8 @ -XC.b.M.b.b.n.c.j.E./.7 w.t.c.$Xb.8.n.b.e.;Xn.9.#X    ",
"    lXrXt.V.Z.a.9.c.8.V.9.%XkXZ.*.Y j.kXwXwX9X:X;X-X-X&X$X9Xe.K.P.I.-.O v.@Xb.b.n.c.c.c.c.t.n./.8 4.r.c.-XC.r.c.r.e.wXV.e.$X    ",
"    kXfXe.M.M.9.b.i 9.V.9.$XkXW.o.7 |.fX:X;X;X-X-X$X$X%X@X=Xf =.L.I.* 0 $Xb.n.c.c.c.c.a.k.j.t.L.R y u.n.;X;XM.t.9.v.fX@Xc.-X    ",
"    kXlXy.b.u.c.w.! n.n.0.#XkXQ.+.9 %XeX>X-X&X$X$X#X@XS.=Xy.[ L.1.( + M.V.c.c.c.u.u.u.r.r.v.8.=.T y n.b.9X4XV.9.8.:XlX%XC.:X    ",
"    kXlX9.c.r.8.i Z.e.c.8.@XkX*X#.9 }.wX&X$X$X#X@X@XC.C.}.T @.>.1.T q C.a.c.c.r.k.r.u.r.r.M.y W T 4.b.V.lX$X8.t.V.C.lX$X-XwX    ",
"    fXkX9.t.r.c.p M.e.u.2.Z.fX9X<.k g.wX#X@XXXXXC.C.Z. Xq.N <.;.<.<.A.g.a.c.r.r.r.r.r.u.u.{.7 $.9 w.b.C.kX#Xe.C.#XV.kX>XpXwX    ",
"    fXkXe.9.c.C.9.@Xi c.8.c.rX0XK.J q.oX@XXXS.Z.V.V.{.x.m @.#.+.* #.<.M.h.r.t.r.r.r.u.u.N.j.m #.& }.b.#XkXpXc.#X-XV.kX-XkX;X    ",
"    wXkXc.8.c.i -Xb.u n.e.9.:XoXW.O.@. X XXXZ.V.V.N.[.[ Z @.<.- : ( U @.a.k.B.n.v.v.x.x.}.[ %.l 1 ;XV.:XkXfX-X-Xt.<XkX>XkX@X    ",
"      kXZ.p t.V.C.u.wX9.b.8.C.,XM.$.K } t.{. X{.N.B. .C $.O.m o x.y [ U C d y w.l.x.V.S. .Z &.$ 3.tXb.fXkXrX-Xt.&XkXfXwXkX      ",
"      kX-X8.e.tXb.8.kXe.V.9.r.;X}.t J I c - d (  .} C { P O.. w Z.l.6 C O.A a s l [ } Z A %.l < <X$XV.kXwX-Xn.rXwXfXtXtXkX      ",
"      kXlX9.e.C.kXy.;Xc.n.M.8.S.@Xz.* J O.V b b V Z Z P P X 1 V.u.b.h.& n U O.L H V Z Z P M . k.kXM.-XkXfXC.$XkXb.lXwXfXrX      ",
"      tXkXc.t.k.Z.V.$X6.m.$X9.e.C.@X7.@ c I P I L K P M X > b.b.u.a.C.h.@ h I P K K P I l . 6.kXwXc.kXkXfX@XtXb.C.kX;XlX$X      ",
"        kX#X9.@X8.&Xn.Z.@X@X@Xi b.c.XXw.1 = h j c h = o q M.b.a.n.b.M.&X{.4 % a g g a $ + j.fXgXn.@XkXlXwX-Xn.b.kXfX$XrX        ",
"        kXlXr.S.V.wX9.:X;XM.wXb.i V.r.V.N.y 1 @ @ @ 1 9.M.b.n.b.V.Z.C.C.-X<Xl.w 6 0 q g.>XkXkX-Xt.kXkX:XV.r.c.fXkX:X@X-X        ",
"        :XkXV.n.%X:X-XC.|.E.<XpXy.8.b.t.c.b.b.k.k.v.M.V.b.b.V.Z.C.C.@X#X$X;XrXpXpXpXfXlXfXfXfX9.:XkXlXc.C.wXt.fXkXC.$X@X        ",
"          kXwXn.:XZ.XXr.c.u.wXfXrXi 9.c.t.r.u.c.n.b.M.M.V.Z.C.@X#X%X-X-X-X:X:XwXrXrXtXtXfXkXe.C.kXkXwXc.E.y.u.kXtXk.$X          ",
"          :XkXV.#XwXV.u.n.p C.tXkXwXp w.c.r.c.n.n.M.V.Z.C.@X@X$X-X-X>X:X<X<XwXwXtXrXtXlXkXe.c.kXkX-Xt.n.e.e.pXkXb.b.%X          ",
"            rX@XV.fXfX$Xc.$XV.Z.kXkXwX! e.M.b.M.V.Z.C.@X%X$X$X>X;X:X<X<XwXtXtXrXrXrXkXgX9.a.kXkX>Xi b.e.k.kXkX;X8.@X            ",
"            -X:Xc.;XkX9Xc.-X-X9.wXkXkXfXr.e.C.XXC.@X#X$X-X-X:X;X:X<XwXtXtXrXrXpXkXkX-X6.M.kXkXkXt.t.tX8.@XkXlX9.v.E.            ",
"              :XM.c.lXkX@X8.9.r.8.n.fXkXkXC.r.C.-X-X-X-X;X:XwXwXwXtXtXrXrXfXkXkXfXc.8.$XkXkX%Xt.e.n.9.9.lXkXc.8.$X              ",
"                $X9.V.kXkXwXc.e.V.8.r.kXkXkXwXV.b.@XwXtXrXeXtXtXrXfXlXkXkXkX:Xn.9.c.kXkXkXM.u e.c.r.n.rXkX@Xu #X                ",
"                  C.i @XkXkXkX9.C.rXr.V.wXfXkXkX;XC.V.C.@X-XwXtXtXwX4X@XV.c.r.V.fXkXkXwXE.y Z.rXe.C.kXkX-Xu |.#X                ",
"                  -Xc.u %XkXkX#Xi r.C.c.c.@X:XkXkXkXfX-X@X@XC.V.V.V.C.Z.|.tXkXkXkXwXr.i e.b.$Xn.e.fXkX-Xi Z.$X                  ",
"                    -Xn.i E.kXkX;Xb.$X<XC.-XrXwXkX9XfXkXkXkXkXkXlXkXkXkXkXkXrX-X$X9.9.@XV.c.c.n.fXkX#X8.|.$X                    ",
"                      -X@Xe.Z.fXkXkXpX-XwX:XlX-XC.#X-XfXkXrX:XkXkXfX:X:XfXZ.i i r.r.$XkXc.M.fXkXkXC.9.$X-X                      ",
"                        -XwX@XZ.:XkXkX-XC.b.-XkXV.#XeX:X@Xr.e.S.-X9.u 9.n.8.V.-Xn.b.C.t.n.fXkXtXn.t.:X#X                        ",
"                            fXhX$X%XrXkXkXtXwX-X#X@X@XC.b.@X&Xk.9.v.#XC.9.c.4X;Xe.|.$X$XkXlX@Xt.C.wX$X                          ",
"                              rXkXrX#X-XfXkXkXwXC.n.@X@X9.c.c.r.e.c.|.e.c.@Xa.t.@XkXkXlX-Xn.n.:X:X                              ",
"                                @XlXkXwX$X-XrXkXkXkXkXkX@Xr.e.-XtXn.e.C.fXfXwXfXkXwX@Xb.n.-X<X-X                                ",
"                                    -XkXkX;X@X#X:XfXkXkXkXkXkXkXkXkXkXkXfXrX<X$XZ.n.M.-XwX$X                                    ",
"                                        #XeX9X#Xb.c.n.C.@X-X-X-X-X$X#XC.M.n.c.n.@X:X:X%X                                        ",
"                                              #X$XC.n.u.e.8.8.9.9.e.t.c.C.@X$X;X#X                                              ",
"                                                      C.C.C.@XC.@X%X#X@XC.                                                      ",
"                                                                                                                                ",
"                                                                                                                                "
};
