/* XPM */
static char *_ac19c89e86b426feee5363701c3a548yUCJCS8f3H7E8oqr[] = {
/* columns rows colors chars-per-pixel */
"32 32 182 2 ",
"   c None",
".  c #7E711B",
"X  c #5C5B4A",
"o  c #4D4F59",
"O  c #65634F",
"+  c #65675A",
"@  c #474D60",
"#  c #4D5464",
"$  c #5A5A61",
"%  c #636369",
"&  c #7C7B66",
"*  c #777777",
"=  c #787877",
"-  c #74747C",
";  c #9A7D00",
":  c #817841",
">  c #817A57",
",  c #B4950F",
"<  c #A58918",
"1  c #BB9712",
"2  c #968522",
"3  c #B89935",
"4  c #CC9801",
"5  c #D29F00",
"6  c #DCAB00",
"7  c #DAB218",
"8  c #E5B500",
"9  c #D7B127",
"0  c #FFDD3B",
"q  c #FFE628",
"w  c #FFEF36",
"e  c #8C8247",
"r  c #908554",
"t  c #A59951",
"y  c #B7AA44",
"u  c #B7B451",
"i  c #8C8563",
"p  c #89887C",
"a  c #A39965",
"s  c #BCAA6E",
"d  c #A6A377",
"f  c #B5AC78",
"g  c #CEB544",
"h  c #CFAC55",
"j  c #D8B959",
"k  c #EBBB4A",
"l  c #CAAA66",
"z  c #CAB968",
"x  c #FACB4B",
"c  c #F6CF4E",
"v  c #FFE344",
"b  c #C8C46B",
"n  c #D9C460",
"m  c #CAC979",
"M  c #DAC877",
"N  c #FCDB60",
"B  c #EED173",
"V  c #FADA70",
"C  c #5E6682",
"Z  c #676E8B",
"A  c #777783",
"S  c #767B96",
"D  c #79839A",
"F  c #7A82A2",
"G  c #868686",
"H  c #8B8B8B",
"J  c #8B8A85",
"K  c #91918F",
"L  c #9D9D8A",
"P  c #8E8E95",
"I  c #939393",
"U  c #9C9B96",
"Y  c #9B9B9C",
"T  c #919098",
"R  c #A9A88D",
"E  c #B3AD86",
"W  c #A0A09E",
"Q  c #B7B69A",
"!  c #8C92AC",
"~  c #9396A7",
"^  c #9498AB",
"/  c #969CB4",
"(  c #999DB7",
")  c #9FA1B2",
"_  c #A3A3A4",
"`  c #A7A8AC",
"'  c #ACACAC",
"]  c #A5A6AA",
"[  c #B9B5A8",
"{  c #ABADB3",
"}  c #A5A9BC",
"|  c #A6A8B7",
" . c #AFB3BB",
".. c #B3B3B3",
"X. c #BAB9B5",
"o. c #B1B4BE",
"O. c #BBBBBB",
"+. c #B9B7B0",
"@. c #C0B482",
"#. c #C4BD85",
"$. c #CBC789",
"%. c #DBD589",
"&. c #CCC79B",
"*. c #D3CE9B",
"=. c #E6D887",
"-. c #FFF988",
";. c #ECE99F",
":. c #C6C4A5",
">. c #D3CFA9",
",. c #DFDFA1",
"<. c #D6D3A5",
"1. c #CACAB1",
"2. c #C1C0BD",
"3. c #D5CFB5",
"4. c #D3D1BD",
"5. c #DBD9B6",
"6. c #E7E1A3",
"7. c #EFEDB8",
"8. c #F7EAB6",
"9. c #FFFFB6",
"0. c #8592C1",
"q. c #989FC3",
"w. c #99A4C7",
"e. c #BCBCC4",
"r. c #B2B7C3",
"t. c #B7BDD7",
"y. c #C0BFC0",
"u. c #BFC0C6",
"i. c #BEC3D7",
"p. c #B8C1E2",
"a. c #C4C4C4",
"s. c #C2C4CC",
"d. c #CCCCCC",
"f. c #C8C8C5",
"g. c #D0CFCB",
"h. c #DADAC5",
"j. c #D4D2CA",
"k. c #DEDECA",
"l. c #CCCCD5",
"z. c #C5C8D8",
"x. c #CFD0DA",
"c. c #D4D4D4",
"v. c #DBDAD6",
"b. c #D2D3DA",
"n. c #DBDBDB",
"m. c #D7D8DC",
"M. c #EFEFC1",
"N. c #ECECCB",
"B. c #E5E4CC",
"V. c #FAEFC2",
"C. c #FCFCCC",
"Z. c #E2E2DE",
"A. c #E7E5D3",
"S. c #F7EFD5",
"D. c #F5F4D4",
"F. c #FFFFD7",
"G. c #FFFFDB",
"H. c #C9CFEC",
"J. c #CBD1E7",
"K. c #DEDFEA",
"L. c #D7DAE6",
"P. c #E3E3E3",
"I. c #EAE9E6",
"U. c #E5E5EA",
"Y. c #EBECEB",
"T. c #E6E8EB",
"R. c #F3F3ED",
"E. c #FEF8E1",
"W. c #E3E5F2",
"Q. c #E7E8F1",
"!. c #EBECF4",
"~. c #ECECF9",
"^. c #F4F4F4",
"/. c #F5F5FB",
"(. c #F6F9FF",
"). c #F9F9F9",
"_. c #FBFBFF",
"`. c #F8F9FF",
"'. c white",
"]. c #FFFEFE",
"[. c #FDFDFD",
"{. c #FDFDFD",
/* pixels */
"                                                                ",
"                        '.^.Y.T.Y.I.Y.).                        ",
"                    Y.v.c.m.W.Q.U.Q.U.l.b.n.                    ",
"                !.f.l.K.A.^.V.8.D.N.>.R.Z.l.d.Y.                ",
"            '.v.e.K.E.@.3.6.#.y m m :.,.m C.T.d.P.{.            ",
"          '.d.a.^.8.=.f !.N.I.I.Y.B.h.5.u b <.T.c.c.Y.          ",
"        '.g.d.'.M y *.(.'.`./.`./.`.'.!.1.:.E z j.i.v.).        ",
"        v.l.'.%.%.h.).).P.P.P.Y.).).'.)./.J.e.s u [ | Y.        ",
"      Y.d.).x.&.B.`.T.n.P.Y.).'.'.'.'.'.[.^.s.e.t +...Y ).      ",
"      d.^.n._ L.~.P.T.).'.'.'.'.'.{.)./.[.'.T.' ( ..X.K d.      ",
"    P.c.Y...e.I.Z.`.'.I.d.).'.).).).~.Y.a.y.U.c.H X.n.] H Y.    ",
"    d.n.c.' d.c.'.R.D.F.1.j././.^.U.k.F.N.4.g.s.' I ' ] G O.    ",
"  ^.f.c.....a.U.R.7.<.R Q 6.G.~.K.3.C.:.L Q 7.f.` K ~ X.] I j.  ",
"  Y.O.f.{ ' O.Q.>.d - _ ] H $.B.[ 9.R $ P A L <.T _ ..U ] Y ..  ",
"  I.X.' I _ a.P.a p /.'._.K.Y $.;.$.o d.f.a.~ $.p { ..K ..' ]   ",
"  Y.` ] H H s.S.e l.).c.c.v.t.E -.O ( X.W W ~ *.i ~ c.Y W a...  ",
"  R.W K H P  .G.t t.Z.d.a.z.Y N n Z X.Y Y U ! a r } Z.H X.T.l.  ",
"  ^.Y H Y H ] ^.j ` L.2.r.w.j v g &.! ] ~ ^ ( 3 i z.I.' f.T.Y.  ",
"  ^.Y Y ..] K p.B x q.w.w.l w O # v f S ^ r.V , S T.'.a.c.'.Z.  ",
"  /..._ c.X.G { } 1 7 h x q < # w.> 8 9 k 0 6 + z.Y.T.y.P.'.d.  ",
"    v.I X...f.U } D 2 5 4 . o ) ..q.& , 4 ; X H.v.'.n...P.^.    ",
"    !.X.O.a.c.c.J { S % % Z  .X...g.J.( P ! _.v.n.).Y f.'.X.    ",
"      n.l...H ^.n.= _ o.o.2.O.a.l.c.Z./.'.'.j.O.'.] I Y.d.      ",
"      d.v.Y.Y ' '.K.K ' a.f.l.v.Z.P.Y.[.^.O.e.'...* P.P.Y       ",
"        ] Y.P.G U ^.^.O.O.c.P.T.^.).Y.l.X.c.I._ G f.Y.Y         ",
"        a.H ).P.H _ v.'.P.c.c.v.v.c.g.c.P.d.I H c.).' f.        ",
"          O.W I.n.d.O.T.P.).T.Y.T.v.P.a.] I { P.P...`           ",
"            d.c.).^.P.v...a...` _ Y H Y ' v.P.I.X.c.            ",
"                n.Y.).Y.P.Z.X...O.X.n.c.K.n.d.X.                ",
"                    n.c.c.K.c.v.K.j.n.c.f.O.                    ",
"                        .._ _ _ ] ..{ O.                        ",
"                                                                "
};
